<svg width="501" height="620" viewBox="0 0 501 620" fill="none" >
<path d="M249.5 52L362.516 215.5H136.484L249.5 52Z" fill="white"/>
<path d="M368.497 218.851L256.556 54.6135L482.584 56.0963L368.497 218.851Z" fill="#0BAACD"/>
<path d="M250 217C236.343 217 222.819 219.755 210.201 225.107C197.583 230.459 186.118 238.304 176.461 248.193C166.804 258.083 159.143 269.823 153.917 282.744C148.69 295.665 146 309.514 146 323.5C146 337.486 148.69 351.335 153.917 364.256C159.143 377.177 166.804 388.917 176.461 398.807C186.118 408.696 197.583 416.541 210.201 421.893C222.819 427.245 236.343 430 250 430L250 323.5V217Z" fill="white"/>
<path d="M250 429C263.657 429 277.181 426.245 289.799 420.893C302.417 415.541 313.882 407.696 323.539 397.807C333.196 387.917 340.857 376.177 346.083 363.256C351.31 350.335 354 336.486 354 322.5C354 308.514 351.31 294.665 346.083 281.744C340.857 268.823 333.196 257.083 323.539 247.193C313.882 237.304 302.417 229.459 289.799 224.107C277.181 218.755 263.657 216 250 216L250 322.5L250 429Z" fill="#77FFFF"/>
<path d="M126 558.327H185L250 619V430H0L85 469.733L126 558.327Z" fill="#B3FFFF"/>
<path d="M373.344 558.966L314.345 559.149L249.508 620L249 431.074L498.999 430.299L414.106 470.28L373.344 558.966Z" fill="#0BAACD"/>
</svg>
