<svg width="40" height="40" viewBox="0 0 40 40" fill="none" xmlns="http://www.w3.org/2000/svg">
<path d="M8.98125 26.9857C13.3179 27.2812 14.2446 27.1741 14.2446 28.0518C14.2446 29.8375 8.39196 29.8429 8.39196 28.1875C8.39286 27.733 8.68571 27.3482 8.98125 26.9857V26.9857ZM11.4768 16.5714C8.59375 16.5714 8.46339 20.542 11.4098 20.542C14.3125 20.542 14.2411 16.5714 11.4768 16.5714V16.5714ZM40 4.28571V35.7143C40 36.8509 39.5485 37.941 38.7447 38.7447C37.941 39.5485 36.8509 40 35.7143 40H4.28571C3.14907 40 2.05898 39.5485 1.25526 38.7447C0.451529 37.941 0 36.8509 0 35.7143L0 4.28571C0 3.14907 0.451529 2.05898 1.25526 1.25526C2.05898 0.451529 3.14907 0 4.28571 0H35.7143C36.8509 0 37.941 0.451529 38.7447 1.25526C39.5485 2.05898 40 3.14907 40 4.28571V4.28571ZM19.7321 10.4741C19.7321 11.7679 20.4804 12.517 21.7732 12.517C23.0893 12.517 23.8384 11.7679 23.8384 10.4741C23.8384 9.18036 23.0911 8.48214 21.775 8.48214C20.4821 8.48214 19.7321 9.18214 19.7321 10.4741ZM17.7839 14.5536H13.3598C11.1277 13.9688 6.07768 14.1205 6.07768 18.7277C6.07768 20.4063 6.91696 21.5848 8.02857 22.1304C6.62768 23.4134 5.96429 24.0179 5.96429 24.875C5.96429 25.4884 6.21339 26.0554 6.9625 26.3714C6.16786 27.1214 5.7125 27.6643 5.7125 28.6857C5.71429 30.4777 7.27946 31.5179 11.3857 31.5179C15.3339 31.5179 17.6241 30.0437 17.6241 27.4348C17.6241 24.1607 15.1036 24.2813 9.1625 23.9188L9.91071 22.7196C11.4286 23.1429 16.5348 23.2759 16.5348 18.9313C16.5348 17.8875 16.1036 17.1616 15.6955 16.6393L17.783 16.4804L17.7839 14.5536ZM25.3143 24.3607L24.1536 24.2018C23.8125 24.1563 23.7902 24.1125 23.7902 23.7473V14.3321H19.0938L18.8446 16.1688C20.2509 16.6643 20.3625 16.6027 20.3625 17.0768V23.75C20.3625 24.2518 20.3348 24.1589 18.8446 24.3634V26.1545H25.3107L25.3143 24.3607ZM34.2857 25.2679L33.6723 23.2705C30.0179 24.6429 30.2929 22.1625 30.2929 21.7768V16.3554H33.6723V14.0866H30.4741C30.2179 14.0866 30.2955 14.3116 30.2955 10.6375H28.1366C27.8875 13.1107 27.0938 14.1089 25.1009 14.3357V16.3554C26.9286 16.3554 26.8705 16.2795 26.8705 16.5821V22.5259C26.8705 25.0902 27.8911 26.1786 30.5911 26.1786C31.8813 26.1786 33.3098 25.7473 34.2857 25.2679V25.2679Z" fill="black"/>
</svg>
