<svg width="103" height="92" viewBox="0 0 103 92" fill="none" xmlns="http://www.w3.org/2000/svg">
<path d="M51.5 89.125C78.165 89.125 99.7812 69.8173 99.7812 46C99.7812 22.1827 78.165 2.875 51.5 2.875C24.835 2.875 3.21875 22.1827 3.21875 46C3.21875 69.8173 24.835 89.125 51.5 89.125Z" fill="#4FD1D9"/>
<path d="M37.4984 29.3249C41.2 25.8749 46.0281 24.1499 51.8219 24.1499C59.5469 24.1499 65.3406 26.4499 68.8813 31.0499C70.8125 33.6374 71.9391 36.2249 72.1 38.8124H62.2828C61.6391 36.7999 60.8344 35.3624 59.8688 34.3562C58.0984 32.4874 55.5234 31.6249 52.1438 31.6249C48.6031 31.6249 45.8672 32.9187 43.9359 35.5062C42.0047 38.0937 40.8781 41.6874 40.8781 46.2874C40.8781 51.0312 42.0047 54.4812 44.0969 56.7812C46.1891 59.0812 48.925 60.2312 52.1438 60.2312C55.5234 60.2312 58.0984 59.2249 59.8688 57.2124C60.8344 56.2061 61.6391 54.4812 62.2828 52.3249H71.9391C71.1344 56.9249 69.0422 60.5186 65.5016 63.3936C62.1219 66.2686 57.6156 67.7061 52.3047 67.7061C45.7063 67.7061 40.3953 65.8374 36.6938 61.9561C32.8313 58.0749 31.0609 52.7562 31.0609 45.9999C30.9 38.8124 33.1531 33.2062 37.4984 29.3249Z" fill="white"/>
</svg>
