<svg width="103" height="92" viewBox="0 0 103 92" fill="none" xmlns="http://www.w3.org/2000/svg">
<path d="M68.6667 61.3334C78.1476 61.3334 85.8333 54.4684 85.8333 46.0001C85.8333 37.5317 78.1476 30.6667 68.6667 30.6667C59.1858 30.6667 51.5 37.5317 51.5 46.0001C51.5 54.4684 59.1858 61.3334 68.6667 61.3334Z" fill="#19BCFE"/>
<path fill-rule="evenodd" clip-rule="evenodd" d="M34.3333 91.9999C38.8862 91.9999 43.2526 90.3844 46.472 87.5089C49.6914 84.6333 51.5 80.7332 51.5 76.6666V61.3333H34.3333C29.7805 61.3333 25.414 62.9487 22.1947 65.8243C18.9753 68.6998 17.1667 72.5999 17.1667 76.6666C17.1667 80.7332 18.9753 84.6333 22.1947 87.5089C25.414 90.3844 29.7805 91.9999 34.3333 91.9999V91.9999Z" fill="#09CF83"/>
<path fill-rule="evenodd" clip-rule="evenodd" d="M34.3333 61.3334H51.5V30.6667H34.3333C29.7805 30.6667 25.414 32.2822 22.1947 35.1578C18.9753 38.0333 17.1667 41.9334 17.1667 46.0001C17.1667 50.0667 18.9753 53.9668 22.1947 56.8424C25.414 59.7179 29.7805 61.3334 34.3333 61.3334V61.3334Z" fill="#A259FF"/>
<path fill-rule="evenodd" clip-rule="evenodd" d="M34.3333 30.6667H51.5V0H34.3333C29.7805 0 25.414 1.61547 22.1947 4.49103C18.9753 7.36659 17.1667 11.2667 17.1667 15.3333C17.1667 19.4 18.9753 23.3001 22.1947 26.1756C25.414 29.0512 29.7805 30.6667 34.3333 30.6667V30.6667Z" fill="#F24E1E"/>
<path fill-rule="evenodd" clip-rule="evenodd" d="M68.6667 30.6667H51.5V0H68.6667C73.2195 0 77.586 1.61547 80.8053 4.49103C84.0247 7.36659 85.8333 11.2667 85.8333 15.3333C85.8333 19.4 84.0247 23.3001 80.8053 26.1756C77.586 29.0512 73.2195 30.6667 68.6667 30.6667Z" fill="#FF7262"/>
</svg>
