<svg width="103" height="92" viewBox="0 0 103 92" fill="none" xmlns="http://www.w3.org/2000/svg">
<path d="M33.2151 71.1199C33.2151 71.1199 27.9049 73.1606 36.9943 73.8512C48.006 74.6813 53.6336 74.5624 65.7687 73.0444C65.7687 73.0444 68.9593 74.3665 73.4144 75.5117C46.2116 83.2165 11.8482 75.0652 33.2151 71.1199" fill="#5382A1"/>
<path d="M29.8909 61.0654C29.8909 61.0654 23.935 63.9791 33.0312 64.6008C44.7941 65.4027 54.0834 65.4684 70.1579 63.4229C70.1579 63.4229 72.3812 64.9124 75.8772 65.7271C42.9868 72.0831 6.35301 66.2283 29.8909 61.0654" fill="#5382A1"/>
<path d="M57.9141 44.0097C64.6172 49.1096 56.1531 53.699 56.1531 53.699C56.1531 53.699 73.1726 47.8926 65.3563 40.6214C58.0562 33.8411 52.4576 30.4716 82.7649 18.8557C82.7649 18.8557 35.1926 26.7076 57.9141 44.0095" fill="#E76F00"/>
<path d="M93.8925 78.5568C93.8925 78.5568 97.8222 80.6964 89.5645 82.3519C73.8626 85.4956 24.211 86.4448 10.4179 82.4771C5.45979 81.0519 14.758 79.0737 17.6826 78.6583C20.7328 78.2212 22.4761 78.3028 22.4761 78.3028C16.962 75.7356 -13.1647 83.3434 7.17337 85.5219C62.6377 91.4663 108.279 82.8454 93.8925 78.5568Z" fill="#5382A1"/>
<path d="M35.7684 50.6478C35.7684 50.6478 10.5128 54.6123 26.8251 56.0516C33.7124 56.661 47.4424 56.5233 60.2317 55.8149C70.6837 55.2326 81.1789 53.9935 81.1789 53.9935C81.1789 53.9935 77.4934 55.0366 74.8271 56.2398C49.1801 60.6976 -0.36534 58.6238 13.8982 54.064C25.9608 50.2106 35.7688 50.6478 35.7688 50.6478" fill="#5382A1"/>
<path d="M81.0747 67.384C107.147 58.4307 95.092 49.8269 86.6781 50.9862C84.6157 51.2696 83.6964 51.5153 83.6964 51.5153C83.6964 51.5153 84.462 50.7229 85.9241 50.3799C102.569 46.5125 115.37 61.7861 80.5508 67.8352C80.5508 67.8355 80.9544 67.5972 81.0747 67.384" fill="#5382A1"/>
<path d="M65.3563 0.0986546C65.3563 0.0986546 79.7952 9.64432 51.6618 24.322C29.1019 36.0964 46.5174 42.8098 51.6525 50.4801C38.4838 42.6282 28.8195 35.7159 35.3033 29.2829C44.8191 19.839 71.1819 15.2606 65.3563 0.0983887" fill="#E76F00"/>
<path d="M38.3305 91.6451C63.3559 92.7039 101.785 91.0578 102.695 83.2322C102.695 83.2322 100.946 86.199 82.0129 88.5549C60.6533 91.2112 34.3095 90.9011 18.6844 89.1986C18.6849 89.1986 21.8831 90.9482 38.3309 91.6451" fill="#5382A1"/>
</svg>
