<svg width="103" height="92" viewBox="0 0 103 92" fill="none" xmlns="http://www.w3.org/2000/svg">
<path d="M102.821 18.0347L93.4701 84.3868L51.4372 91.7677L9.52026 84.397L0.179047 18.0347H102.821Z" fill="#E44D26"/>
<path d="M51.5 86.1257L85.4647 80.1615L93.4552 23.4604H51.5V86.1257Z" fill="#F16529"/>
<path d="M33.3221 39.7389H51.5V31.5999H19.2791L19.5865 33.7834L22.7449 56.2125H51.5V48.0735H34.4966L33.3221 39.7389V39.7389Z" fill="#EBEBEB"/>
<path d="M36.2182 60.2822H23.319L25.1191 73.0618L51.4408 77.6898L51.5 77.6797V69.2116L51.4437 69.221L37.1331 66.7735L36.2182 60.2822V60.2822Z" fill="#EBEBEB"/>
<path d="M9.72867 0H16.2587V4.08648H22.2323V0H28.7627V12.3749H22.2327V8.23107H16.2591V12.3749H9.72907V0H9.72867Z" fill="black"/>
<path d="M37.3496 4.10381H31.6017V0H49.6323V4.10381H43.8808V12.3749H37.3508V4.10381H37.3504H37.3496Z" fill="black"/>
<path d="M52.4938 0H59.3026L63.491 4.34821L67.6754 0H74.4871V12.3749H67.9836V6.24122L63.491 10.6412H63.3784L58.883 6.24122V12.3749H52.4938V0Z" fill="black"/>
<path d="M77.7369 0H84.2689V8.28459H93.452V12.3749H77.7365V0H77.7369Z" fill="black"/>
<path d="M51.4558 56.2126H67.2787L65.7868 66.7683L51.4554 69.2184V77.686L77.798 73.0618L77.9911 71.6866L81.0111 50.2591L81.3245 48.0735H51.4558V56.2126Z" fill="white"/>
<path d="M51.4557 39.719V39.7389H82.4938L82.7513 37.9096L83.3371 33.7834L83.6441 31.5999H51.4557V39.7193V39.719Z" fill="white"/>
</svg>
