<svg width="103" height="92" viewBox="0 0 103 92" fill="none" xmlns="http://www.w3.org/2000/svg">
<path d="M0 80.1374C0 86.6895 5.94624 92 13.281 92H89.7186C97.0546 92 103 86.6888 103 80.1374V11.863C103 5.31048 97.0538 0 89.719 0H13.2814C5.94543 0 0 5.3112 0 11.8626V80.137V80.1374Z" fill="#563D7C"/>
<path d="M42.712 40.6949V27.6665H55.5512C56.7743 27.6665 57.9532 27.7574 59.0886 27.9396C60.224 28.1215 61.2287 28.4463 62.1022 28.9146C62.9752 29.3829 63.6741 30.033 64.1984 30.8649C64.7222 31.6972 64.9846 32.7635 64.9846 34.0634C64.9846 36.404 64.1984 38.0945 62.626 39.1345C61.0541 40.1749 59.0452 40.6949 56.5993 40.6949H42.712V40.6949ZM28.9989 18.1484V73.8516H59.2198C62.0149 73.8516 64.7371 73.5396 67.3865 72.9154C70.036 72.2912 72.3941 71.3291 74.4614 70.0289C76.5282 68.7287 78.1734 67.0511 79.3961 64.9969C80.6192 62.9424 81.2304 60.5108 81.2304 57.7023C81.2304 54.2175 80.2841 51.24 78.3919 48.7697C76.4992 46.299 73.6313 44.5697 69.7881 43.5814C72.5832 42.3854 74.6943 40.8509 76.121 38.9785C77.5473 37.1062 78.2607 34.7659 78.2607 31.9571C78.2607 29.3566 77.7803 27.1723 76.8195 25.4039C75.8587 23.6357 74.5048 22.2184 72.7578 21.1521C71.0113 20.0858 68.9151 19.3186 66.4692 18.8507C64.0238 18.3824 61.316 18.1484 58.3463 18.1484H28.9989V18.1484ZM42.712 64.3335V49.0425H57.6474C60.6171 49.0425 63.0046 49.6534 64.8099 50.876C66.6148 52.0982 67.5177 54.1395 67.5177 57.0001C67.5177 58.4567 67.2409 59.6527 66.6877 60.5888C66.1345 61.525 65.3921 62.2664 64.4603 62.8123C63.5289 63.3585 62.4514 63.7485 61.2287 63.9828C60.0055 64.2164 58.7249 64.3335 57.3855 64.3335H42.712V64.3335Z" fill="white"/>
</svg>
