<svg width="103" height="92" viewBox="0 0 103 92" fill="none" xmlns="http://www.w3.org/2000/svg">
<path d="M51.4372 91.7677L9.52026 84.397L0.179047 18.0347H102.821L93.4701 84.3868L51.4372 91.7677V91.7677Z" fill="#264DE4"/>
<path d="M85.4647 80.1615L93.4552 23.4604H51.5V86.1257L85.4647 80.1615V80.1615Z" fill="#2965F1"/>
<path d="M21.5934 48.0735L22.7449 56.2126H51.5V48.0735H21.5934Z" fill="#EBEBEB"/>
<path d="M19.2791 31.5999L20.4471 39.7389H51.5V31.5999H19.2791V31.5999Z" fill="#EBEBEB"/>
<path d="M51.5 69.2116L51.4437 69.221L37.1331 66.7735L36.2182 60.2822H23.319L25.1191 73.0618L51.4408 77.6898L51.5 77.6797V69.2116Z" fill="#EBEBEB"/>
<path d="M24.3354 0H39.898V4.12242H30.8437V8.24483H39.8988V12.367H24.3354V0Z" fill="black"/>
<path d="M43.0109 0H58.574V3.58469H49.5193V4.30157H58.574V12.5464H43.0113V8.78205H52.0661V8.06517H43.0105V0H43.0109Z" fill="black"/>
<path d="M61.687 0H77.25V3.58469H68.1953V4.30157H77.25V12.5464H61.687V8.78205H70.7417V8.06517H61.6874V0H61.687Z" fill="black"/>
<path d="M81.3245 48.0735L83.644 31.5999H51.4557V39.7389H69.562L68.3928 48.0735H51.4557V56.2125H67.2787L65.7868 66.7683L51.4553 69.2184V77.686L77.798 73.0618L77.9911 71.6866L81.0111 50.259L81.3245 48.0735V48.0735Z" fill="white"/>
</svg>
